<svg width="59" height="57" viewBox="0 0 59 57" fill="none" xmlns="http://www.w3.org/2000/svg">
<path d="M39.0279 37.9045L40.2633 36.6684L37.3942 33.765L36.1643 35.0011L39.0279 37.9045ZM44.4056 36.1499L49.5829 38.985L51.5199 35.3886L46.3454 32.5562L44.4056 36.1499ZM50.5771 44.6171L46.7301 48.4728L49.5937 51.3734L53.4407 47.5205L50.5771 44.6171ZM44.3839 49.7117C40.4556 50.0828 30.2962 49.7526 19.2915 38.734L16.4252 41.6346C28.4323 53.6601 39.8623 54.2495 44.7632 53.7884L44.3839 49.7117ZM19.2915 38.734C8.80423 28.2284 7.06494 19.3955 6.8482 15.5617L2.78985 15.7936C3.06077 20.618 5.21457 30.4087 16.4252 41.6346L19.2915 38.734ZM23.0166 21.8705L23.7941 21.0901L20.9333 18.1894L20.1557 18.9671L23.0166 21.8705ZM24.4118 11.1712L20.9983 6.57599L17.7445 9.03184L21.1581 13.6243L24.4118 11.1712ZM9.50862 5.57455L5.2552 9.83135L8.12152 12.7347L12.3722 8.47791L9.50862 5.57455ZM21.5862 20.4188C20.1503 18.9671 20.1503 18.9671 20.1503 18.9726H20.1449L20.1368 18.9835C20.008 19.1142 19.8927 19.2578 19.7927 19.4119C19.6464 19.6302 19.4865 19.9167 19.3511 20.2796C19.0213 21.2165 18.9392 22.2236 19.1127 23.2021C19.4757 25.5624 21.0904 28.6814 25.2246 32.8236L28.0909 29.9202C24.2195 26.0454 23.2984 23.6878 23.1277 22.5745C23.0464 22.0451 23.1304 21.7832 23.1548 21.7231C23.171 21.6867 23.171 21.6813 23.1548 21.7068C23.1306 21.7444 23.1034 21.78 23.0735 21.8132L23.0464 21.8405L23.0193 21.865L21.5862 20.4188ZM25.2246 32.8236C29.3615 36.9658 32.4744 38.5812 34.8205 38.9414C36.0207 39.1269 36.9879 38.9796 37.7221 38.704C38.1333 38.5525 38.5176 38.335 38.8599 38.06L38.9954 37.9372L39.0143 37.9208L39.0225 37.9126L39.0252 37.9072C39.0252 37.9072 39.0279 37.9045 37.5947 36.4528C36.1589 35.0011 36.167 34.9984 36.167 34.9984L36.1724 34.9929L36.1778 34.9875L36.1941 34.9738L36.2212 34.9465L36.3241 34.8647C36.3494 34.8483 36.3431 34.8501 36.3052 34.8701C36.2374 34.8947 35.9719 34.9793 35.4382 34.8974C34.3166 34.7228 31.9596 33.795 28.0909 29.9202L25.2246 32.8236ZM20.9983 6.57326C18.2349 2.86219 12.8057 2.27279 9.50862 5.57455L12.3722 8.47791C13.8135 7.03441 16.371 7.18449 17.7445 9.03184L20.9983 6.57326ZM6.85091 15.5644C6.79673 14.6203 7.22749 13.6325 8.12152 12.7374L5.2525 9.83408C3.79766 11.2912 2.65168 13.3541 2.78985 15.7936L6.85091 15.5644ZM46.7301 48.4728C45.9878 49.2205 45.1859 49.6407 44.3867 49.7144L44.7632 53.7884C46.7545 53.6001 48.3827 52.5905 49.5964 51.3762L46.7301 48.4728ZM23.7941 21.0901C26.4627 18.4186 26.6605 14.1973 24.4146 11.1739L21.1608 13.627C22.2526 15.0978 22.0901 17.027 20.9305 18.1922L23.7941 21.0901ZM49.5856 38.9878C51.799 40.1993 52.143 43.0536 50.5798 44.6199L53.4462 47.5205C57.0765 43.8831 55.9576 37.8171 51.5226 35.3913L49.5856 38.9878ZM40.2633 36.6711C41.3036 35.6287 42.9779 35.3722 44.4083 36.1526L46.3481 32.5589C43.4113 30.9489 39.7702 31.3937 37.397 33.7677L40.2633 36.6711Z" fill="white"/>
</svg>
